{"title":"Super 7  Latest Bollywood Romantic Songs  2016 ( Video Jukebox )","uid":15462018,"size":300358088,"categoryP":"video","categoryS":"music_videos","magnet":"?xt=urn:btih:dd5a778a8277fea9e458321b69489057e887b449&amp;dn=Super+7++Latest+Bollywood+Romantic+Songs++2016+%28+Video+Jukebox+%29&amp;tr=udp%3A%2F%2Ftracker.leechers-paradise.org%3A6969&amp;tr=udp%3A%2F%2Fzer0day.ch%3A1337&amp;tr=udp%3A%2F%2Fopen.demonii.com%3A1337&amp;tr=udp%3A%2F%2Ftracker.coppersurfer.tk%3A6969&amp;tr=udp%3A%2F%2Fexodus.desync.com%3A6969","seeders":11,"leechers":2,"uploader":"MdTaRa","files":1,"time":1470057712,"description":"====================================================================\r\nGeneral\r\nSuper 7  Latest Bollywood Romantic Songs  2016 ( Video Jukebox ) Full HD 720p.mkv\r\nFormat                      : Matroska\r\nFormat version              : Version 4 / Version 2\r\nFile size                   : 286 MiB\r\nDuration                    : 23 min\r\nOverall bit rate mode       : Variable\r\nOverall bit rate            : 1 701 kb/s\r\n====================================================================\r\nVideo\r\nID                          : 1\r\nFormat                      : AVC\r\nFormat/Info                 : Advanced Video Codec\r\nFormat profile              :   \r\nFormat settings, CABAC      : Yes\r\nFormat settings, ReFrames   : 3 frames\r\nCodec ID                    : V_MPEG4/ISO/AVC\r\nDuration                    : 23 min\r\nBit rate mode               : Variable\r\nBit rate                    : 1 507 kb/s\r\nMaximum bit rate            : 40.0 Mb/s\r\nWidth                       : 1 280 pixels\r\nHeight                      : 616 pixels\r\nDisplay aspect ratio        : 2.078\r\nFrame rate mode             : Constant\r\nFrame rate                  : 24.000 FPS\r\nColor space                 : YUV\r\nChroma subsampling          : 4:2:0\r\nBit depth                   : 8 bits\r\nScan type                   : Progressive\r\nBits/(Pixel*Frame)          : 0.080\r\nStream size                 : 254 MiB (89%)\r\nTitle                       : .....::::: TaRa :::::.....\r\nLanguage                    : Hindi\r\nDefault                     : Yes\r\nForced                      : No\r\n========================================================================\r\nAudio\r\nID                          : 2\r\nFormat                      : AAC\r\nFormat/Info                 : Advanced Audio Codec\r\nFormat profile              : LC\r\nCodec ID                    : A_AAC\r\nDuration                    : 23 min\r\nBit rate                    : 192 kb/s\r\nChannel(s)                  : 2 channels\r\nChannel positions           : Front: L R\r\nSampling rate               : 44.1 kHz\r\nFrame rate                  : 43.066 FPS (1024 spf)\r\nCompression mode            : Lossy\r\nDelay relative to video     : 10 ms\r\nStream size                 : 32.2 MiB (11%)\r\nTitle                       : .....::::: TaRa :::::.....\r\nLanguage                    : Hindi\r\nDefault                     : Yes\r\nForced                      : No\r\n======================================================================== \nhttp://imgur.com/ebRBXiA \nhttp://imgur.com/gF8AClH","torrent":{"xt":"urn:btih:dd5a778a8277fea9e458321b69489057e887b449","amp;dn":"Super+7++Latest+Bollywood+Romantic+Songs++2016+%28+Video+Jukebox+%29","amp;tr":["udp%3A%2F%2Ftracker.leechers-paradise.org%3A6969","udp%3A%2F%2Fzer0day.ch%3A1337","udp%3A%2F%2Fopen.demonii.com%3A1337","udp%3A%2F%2Ftracker.coppersurfer.tk%3A6969","udp%3A%2F%2Fexodus.desync.com%3A6969"],"infoHash":"dd5a778a8277fea9e458321b69489057e887b449","infoHashBuffer":{"type":"Buffer","data":[221,90,119,138,130,119,254,169,228,88,50,27,105,72,144,87,232,135,180,73]},"announce":[],"urlList":[]}}